<svg width="107" height="66" viewBox="0 0 107 66" fill="none" xmlns="http://www.w3.org/2000/svg">
<path d="M34.498 52.9949C34.498 52.9954 34.4985 52.9959 34.499 52.9959C34.4996 52.9959 34.5 52.9963 34.5 52.9969V59.9959C34.5 60.5482 34.0523 60.9959 33.5 60.9959H6.5C5.94772 60.9959 5.5 60.5482 5.5 59.9959V54.919C5.5 54.6508 5.60769 54.3939 5.79889 54.2059L32.7889 27.6677C33.4212 27.0461 34.4897 27.4938 34.49 28.3805L34.498 52.9949Z" fill="#D9D9D9"/>
<path d="M69.5 60.3662C69.5 60.9185 69.0523 61.3662 68.5 61.3662H39.5C38.9477 61.3662 38.5 60.9185 38.5 60.3662V50.0323C38.5 50.028 38.5036 50.0244 38.5079 50.0244C38.5103 50.0244 38.5126 50.0233 38.5141 50.0215L67.7109 13.9442C68.3038 13.2116 69.4883 13.6308 69.4883 14.5733V50.0185C69.4883 50.0218 69.4909 50.0244 69.4941 50.0244C69.4974 50.0244 69.5 50.027 69.5 50.0303V60.3662Z" fill="#D9D9D9"/>
<path d="M99.6631 14.4404C100.216 13.6253 101.49 14.0168 101.49 15.002V50.0195L101.5 50.0293V60.3662C101.5 60.9184 101.052 61.3662 100.5 61.3662H76.5C75.9478 61.3662 75.5001 60.9184 75.5 60.3662V50.0303C75.5002 50.0269 75.5034 50.0244 75.5068 50.0244C75.5088 50.0243 75.5106 50.0231 75.5117 50.0215L99.6631 14.4404ZM80.5859 47.2197L81.4141 47.7803L93.9141 29.2803L93.0859 28.7197L80.5859 47.2197Z" fill="#D9D9D9"/>
<path d="M1.5 63.5H105.5" stroke="#CCCCCC" stroke-width="2" stroke-linecap="round"/>
<path d="M1.5 1C2.00232 1 2.50232 1 3 1M103.5 1H105M103.5 1C103.706 1 96.1843 1 71 1M103.5 1V62.5M103.5 62.5H105.25C105.94 62.5 106.5 63.0596 106.5 63.75C106.5 64.4404 105.94 65 105.25 65H1.75C1.05965 65 0.5 64.4404 0.5 63.75C0.5 63.0596 1.05964 62.5 1.75 62.5H3M103.5 62.5H71M3 62.5V1M3 62.5H36M3 1C15.3819 1 26.3328 1 36 1M36 1V62.5M36 1C50.3262 1 61.8332 1 71 1M36 62.5H71M71 1V62.5M8 42L33 17M7.5 52L32.5 28M76 42L93.5 17" stroke="black"/>
<path d="M2 1H104.5" stroke="black" stroke-width="2" stroke-linecap="round"/>
</svg>
