<svg width="87" height="88" viewBox="0 0 87 88" fill="none" xmlns="http://www.w3.org/2000/svg">
<mask id="path-1-inside-1_4_44" fill="white">
<path d="M43.5 4.5H78.5V86.5H43.5V4.5Z"/>
</mask>
<path d="M43.5 4.5V3.5H41.5V4.5H43.5ZM78.5 4.5H79.5V3.5H78.5V4.5ZM78.5 86.5V87.5H79.5V86.5H78.5ZM43.5 86.5H41.5V87.5H43.5V86.5ZM43.5 4.5V5.5H78.5V4.5V3.5H43.5V4.5ZM78.5 4.5H77.5V86.5H78.5H79.5V4.5H78.5ZM78.5 86.5V85.5H43.5V86.5V87.5H78.5V86.5ZM43.5 86.5H45.5V4.5H43.5H41.5V86.5H43.5Z" fill="black" mask="url(#path-1-inside-1_4_44)"/>
<path d="M43.5 4.5V3.5H41.5V4.5H43.5ZM78.5 4.5H79.5V3.5H78.5V4.5ZM78.5 86.5V87.5H79.5V86.5H78.5ZM43.5 86.5H41.5V87.5H43.5V86.5ZM43.5 4.5V5.5H78.5V4.5V3.5H43.5V4.5ZM78.5 4.5H77.5V86.5H78.5H79.5V4.5H78.5ZM78.5 86.5V85.5H43.5V86.5V87.5H78.5V86.5ZM43.5 86.5H45.5V4.5H43.5H41.5V86.5H43.5Z" fill="black" mask="url(#path-1-inside-1_4_44)"/>
<path d="M43.5 4.5V3.5H41.5V4.5H43.5ZM78.5 4.5H79.5V3.5H78.5V4.5ZM78.5 86.5V87.5H79.5V86.5H78.5ZM43.5 86.5H41.5V87.5H43.5V86.5ZM43.5 4.5V5.5H78.5V4.5V3.5H43.5V4.5ZM78.5 4.5H77.5V86.5H78.5H79.5V4.5H78.5ZM78.5 86.5V85.5H43.5V86.5V87.5H78.5V86.5ZM43.5 86.5H45.5V4.5H43.5H41.5V86.5H43.5Z" fill="black" mask="url(#path-1-inside-1_4_44)"/>
<path d="M75.5 81.2949C75.5 81.8472 75.0523 82.2949 74.5 82.2949H47.5C46.9477 82.2949 46.5 81.8472 46.5 81.2949V70.9242C46.5 70.9202 46.5032 70.917 46.5072 70.917C46.5094 70.917 46.5115 70.9159 46.5129 70.9141L73.6911 34.9013C74.269 34.1354 75.4893 34.5442 75.4893 35.5037V70.9116C75.4893 70.9146 75.4917 70.917 75.4946 70.917C75.4976 70.917 75.5 70.9194 75.5 70.9224V81.2949Z" fill="#EEEEEE"/>
<path d="M47.5 62.5L74.5 31M57.5 38L74.5 20" stroke="#EEEEEE"/>
<path d="M48 39.5V38C48 37.4477 48.4477 37 49 37H50C50.5523 37 51 37.4477 51 38V58C51 58.5523 50.5523 59 50 59C49.4477 59 49 58.5523 49 58V40.5C49 40.2239 48.7761 40 48.5 40C48.2239 40 48 39.7761 48 39.5Z" stroke="black"/>
<path d="M76 17.5V15H80.5V17.5H76Z" fill="black" stroke="black"/>
<path d="M75.5 76V73.5H80V76H75.5Z" fill="black" stroke="black"/>
<path d="M6.5 76V73.5H11V76H6.5Z" fill="black" stroke="black"/>
<path d="M6.5 17V14.5H11V17H6.5Z" fill="black" stroke="black"/>
<path d="M4.5 5H0.5V0.5H86V5H82.5" stroke="black"/>
<rect x="4.5" y="4.5" width="78" height="82" stroke="black" stroke-width="2"/>
<mask id="path-12-inside-2_4_44" fill="white">
<path d="M7.5 4.5H43.5V86.5H7.5V4.5Z"/>
</mask>
<path d="M7.5 4.5V3.5H6.5V4.5H7.5ZM43.5 4.5H45.5V3.5H43.5V4.5ZM43.5 86.5V87.5H45.5V86.5H43.5ZM7.5 86.5H6.5V87.5H7.5V86.5ZM7.5 4.5V5.5H43.5V4.5V3.5H7.5V4.5ZM43.5 4.5H41.5V86.5H43.5H45.5V4.5H43.5ZM43.5 86.5V85.5H7.5V86.5V87.5H43.5V86.5ZM7.5 86.5H8.5V4.5H7.5H6.5V86.5H7.5Z" fill="black" mask="url(#path-12-inside-2_4_44)"/>
<path d="M7.5 4.5V3.5H6.5V4.5H7.5ZM43.5 4.5H45.5V3.5H43.5V4.5ZM43.5 86.5V87.5H45.5V86.5H43.5ZM7.5 86.5H6.5V87.5H7.5V86.5ZM7.5 4.5V5.5H43.5V4.5V3.5H7.5V4.5ZM43.5 4.5H41.5V86.5H43.5H45.5V4.5H43.5ZM43.5 86.5V85.5H7.5V86.5V87.5H43.5V86.5ZM7.5 86.5H8.5V4.5H7.5H6.5V86.5H7.5Z" fill="black" mask="url(#path-12-inside-2_4_44)"/>
<path d="M7.5 4.5V3.5H6.5V4.5H7.5ZM43.5 4.5H45.5V3.5H43.5V4.5ZM43.5 86.5V87.5H45.5V86.5H43.5ZM7.5 86.5H6.5V87.5H7.5V86.5ZM7.5 4.5V5.5H43.5V4.5V3.5H7.5V4.5ZM43.5 4.5H41.5V86.5H43.5H45.5V4.5H43.5ZM43.5 86.5V85.5H7.5V86.5V87.5H43.5V86.5ZM7.5 86.5H8.5V4.5H7.5H6.5V86.5H7.5Z" fill="black" mask="url(#path-12-inside-2_4_44)"/>
<mask id="path-14-inside-3_4_44" fill="white">
<path d="M37.5 38.5H40.5V59.5H37.5V38.5Z"/>
</mask>
<path d="M37.5 38.5V37.5H36.5V38.5H37.5ZM40.5 38.5H42.5V37.5H40.5V38.5ZM40.5 59.5V60.5H42.5V59.5H40.5ZM37.5 59.5H36.5V60.5H37.5V59.5ZM37.5 38.5V39.5H40.5V38.5V37.5H37.5V38.5ZM40.5 38.5H38.5V59.5H40.5H42.5V38.5H40.5ZM40.5 59.5V58.5H37.5V59.5V60.5H40.5V59.5ZM37.5 59.5H38.5V38.5H37.5H36.5V59.5H37.5Z" fill="black" mask="url(#path-14-inside-3_4_44)"/>
<rect x="48.25" y="37.25" width="2.5" height="1.5" stroke="black" stroke-width="1.5"/>
</svg>
