<svg width="87" height="69" viewBox="0 0 87 69" fill="none" xmlns="http://www.w3.org/2000/svg">
<path d="M43 6.86914V63.5986L2 67.8896V1.14844L43 6.86914Z" stroke="black" stroke-width="2"/>
<path d="M43 6.86914V63.5986L84 67.8896V1.14844L43 6.86914Z" stroke="black" stroke-width="2"/>
<path d="M40 9.89746V60.1865L5 63.8887V6.11328L40 9.89746Z" stroke="black" stroke-width="2"/>
<path d="M45.5 9.44824V60.6367L81.5 64.4443V5.55664L45.5 9.44824Z" stroke="black"/>
<path d="M43.5 7.44043V63.543L86 67.4512V2.06641L43.5 7.44043Z" stroke="black"/>
<path d="M71 21L52.5 45.5" stroke="#DDDDDD" stroke-width="2" stroke-linecap="round"/>
<path d="M73.7764 8.63086L47.7764 40.6309L46 42.8164V19.1016L46.2744 18.8125L55.2744 9.3125L55.5234 9.04883L55.8828 9.00684L72.8828 7.00684L75.3291 6.71875L73.7764 8.63086ZM60.8105 17.1084C60.5941 16.9371 60.2799 16.9732 60.1084 17.1895L50.6084 29.1895C50.4371 29.4059 50.4732 29.7201 50.6895 29.8916C50.9059 30.0629 51.2201 30.0268 51.3916 29.8105L60.8916 17.8105C61.0629 17.5941 61.0268 17.2799 60.8105 17.1084Z" fill="#EEEEEE"/>
<path d="M1 1V68" stroke="black" stroke-width="2" stroke-linecap="round"/>
<path d="M82 37.5V34.25M82 34.25V31.5C82 31.2239 81.7761 31 81.5 31C81.2239 31 81 31.2239 81 31.5V34.25M82 34.25H81M78 34.25H80H81" stroke="black" stroke-width="2" stroke-linecap="round"/>
</svg>
