<svg width="104" height="80" viewBox="0 0 104 80" fill="none" xmlns="http://www.w3.org/2000/svg">
<path d="M61.6768 32H44L65.8643 3H80.75L61.6768 32ZM67.1504 3.59277C66.9293 3.42745 66.6156 3.47237 66.4502 3.69336L49.5996 26.2002C49.4341 26.4212 49.4792 26.7349 49.7002 26.9004C49.9212 27.0659 50.2349 27.0208 50.4004 26.7998L67.251 4.29297C67.4165 4.07192 67.3714 3.75828 67.1504 3.59277Z" fill="#EEEEEE"/>
<path d="M101 77H84V65L101 46V77ZM98.3369 54.6309C98.133 54.4448 97.817 54.4592 97.6309 54.6631L87.1309 66.1631C86.9448 66.3671 86.9592 66.683 87.1631 66.8692C87.367 67.0553 87.683 67.0408 87.8691 66.837L98.3691 55.337C98.5553 55.133 98.5408 54.8171 98.3369 54.6309Z" fill="#EEEEEE"/>
<path d="M77.371 44.7026C78.0249 44.1736 79 44.639 79 45.4801V60.9493V75.3847C79 75.937 78.5523 76.3847 78 76.3847H55C54.4477 76.3847 54 75.937 54 75.3847V64.0878C54 63.7859 54.1364 63.5002 54.371 63.3104L77.371 44.7026Z" fill="#EEEEEE"/>
<path d="M49 76.3848H23V62.2148L49 39.7803V76.3848ZM44.793 50.084C44.6146 49.8737 44.2995 49.8475 44.0889 50.0254L28.0293 63.6045C27.8189 63.7828 27.7928 64.0988 27.9707 64.3096C28.149 64.5202 28.465 64.5462 28.6758 64.3682L44.7344 50.7891C44.9452 50.6107 44.9712 50.2948 44.793 50.084Z" fill="#EEEEEE"/>
<path d="M47.5 40L26 59M73.5 51.5L57 64.5M103 67.5L88 79M8.5 4L1 24M77 15.5L67.5 28.5M18.5 73L14 79" stroke="#CCCCCC" stroke-linecap="round"/>
<path d="M8.32741 3H18.75L2.75 49V18.1753L8.32741 3Z" fill="#EEEEEE"/>
<rect x="1" y="1" width="102" height="78" stroke="black" stroke-width="2"/>
<path d="M21 1V78.5M82 1L81.5 79" stroke="black"/>
<path d="M21 33.5H82" stroke="black" stroke-width="2"/>
<path d="M51.5 34V79.5" stroke="black" stroke-width="2"/>
</svg>
